<?xml version="1.0" standalone="no"?>
<!DOCTYPE svg PUBLIC "-//W3C//DTD SVG 20010904//EN"
 "http://www.w3.org/TR/2001/REC-SVG-20010904/DTD/svg10.dtd">
<svg version="1.0" xmlns="http://www.w3.org/2000/svg"
 width="800.000000pt" height="600.000000pt" viewBox="0 0 800.000000 600.000000"
 preserveAspectRatio="xMidYMid meet">

<g transform="translate(0.000000,600.000000) scale(0.100000,-0.100000)"
fill="#000000" stroke="none">
<path d="M0 3000 l0 -3000 4000 0 4000 0 0 3000 0 3000 -4000 0 -4000 0 0
-3000z m4239 950 c281 -69 524 -271 652 -544 37 -79 79 -224 79 -273 l0 -23
-259 0 -259 0 -16 46 c-45 133 -161 243 -304 289 -41 13 -78 16 -155 13 -89
-3 -111 -8 -170 -36 -115 -54 -195 -145 -255 -294 l-12 -28 -255 0 -255 0 0
31 c0 53 40 190 80 276 141 302 420 512 745 563 91 14 287 4 384 -20z m-81
-655 c92 -50 149 -129 172 -237 30 -150 -62 -313 -209 -369 -83 -31 -205 -24
-279 16 -189 103 -235 356 -93 518 70 79 144 108 266 104 77 -2 98 -7 143 -32z
m812 -417 c0 -58 -39 -199 -79 -283 -216 -462 -730 -684 -1206 -522 -255 87
-459 271 -575 520 -40 86 -80 223 -80 276 l0 31 259 0 258 0 13 -46 c18 -62
76 -150 135 -202 99 -87 218 -124 361 -111 163 15 324 142 379 299 8 25 17 51
20 58 3 9 65 12 260 12 l255 0 0 -32z"/>
</g>
</svg>
